<svg width="11" height="13" viewBox="0 0 11 13" fill="none" xmlns="http://www.w3.org/2000/svg">
<g id="Frame 1">
<path id="Vector" d="M10 5.5C10 9 5.5 12 5.5 12C5.5 12 1 9 1 5.5C1 4.30653 1.47411 3.16193 2.31802 2.31802C3.16193 1.47411 4.30653 1 5.5 1C6.69347 1 7.83807 1.47411 8.68198 2.31802C9.52589 3.16193 10 4.30653 10 5.5Z" fill="#FE593E" stroke="#FE593E" stroke-linecap="round" stroke-linejoin="round"/>
<path id="Vector_2" d="M5.5 7C6.32843 7 7 6.32843 7 5.5C7 4.67157 6.32843 4 5.5 4C4.67157 4 4 4.67157 4 5.5C4 6.32843 4.67157 7 5.5 7Z" fill="white"/>
</g>
</svg>
